<svg preserveAspectRatio="none" overflow="visible" style="display: block;" width="21" height="21" viewBox="0 0 21 21" fill="none" xmlns="http://www.w3.org/2000/svg">
<g id="Component 1">
<path id="Vector" d="M3.5 5.95C3.5 5.30022 3.75812 4.67705 4.21759 4.21759C4.67705 3.75812 5.30022 3.5 5.95 3.5H15.05C15.6998 3.5 16.3229 3.75812 16.7824 4.21759C17.2419 4.67705 17.5 5.30022 17.5 5.95V15.05C17.5 15.6998 17.2419 16.3229 16.7824 16.7824C16.3229 17.2419 15.6998 17.5 15.05 17.5H5.95C5.30022 17.5 4.67705 17.2419 4.21759 16.7824C3.75812 16.3229 3.5 15.6998 3.5 15.05V5.95Z" stroke="white" stroke-width="1.75" stroke-linecap="round" stroke-linejoin="round"/>
<path id="Vector_2" d="M7 7.875H14" stroke="white" stroke-width="1.75" stroke-linecap="round" stroke-linejoin="round"/>
<path id="Vector_3" d="M7 10.5H14" stroke="white" stroke-width="1.75" stroke-linecap="round" stroke-linejoin="round"/>
<path id="Vector_4" d="M7 13.125H11.375" stroke="white" stroke-width="1.75" stroke-linecap="round" stroke-linejoin="round"/>
</g>
</svg>
